<?xml version="1.0" standalone="no"?>
<!DOCTYPE svg PUBLIC "-//W3C//DTD SVG 20010904//EN"
 "http://www.w3.org/TR/2001/REC-SVG-20010904/DTD/svg10.dtd">
<svg version="1.0" xmlns="http://www.w3.org/2000/svg"
 width="133.000000pt" height="132.000000pt" viewBox="0 0 133.000000 132.000000"
 preserveAspectRatio="xMidYMid meet">

<g transform="translate(0.000000,132.000000) scale(0.100000,-0.100000)"
fill="#000000" stroke="none">
<path d="M127 965 c-79 -28 -117 -88 -117 -187 0 -73 18 -110 75 -153 42 -33
114 -43 169 -25 31 10 36 16 36 41 0 29 0 29 -30 14 -93 -48 -200 18 -200 123
0 64 24 107 74 132 52 25 72 25 119 1 l37 -19 0 30 c0 50 -82 72 -163 43z"/>
<path d="M370 891 c0 -67 -3 -81 -17 -85 -31 -10 -97 -4 -120 10 -36 23 -72
18 -85 -12 -13 -28 -5 -49 25 -68 13 -8 25 -7 48 7 20 11 52 17 90 17 l59 0 0
-80 0 -80 76 0 c70 0 78 2 105 29 37 38 41 102 7 138 -20 22 -20 24 -4 42 9
10 19 35 23 54 5 32 1 41 -30 72 -33 33 -38 35 -106 35 l-71 0 0 -79z m140 9
c11 -11 20 -27 20 -35 0 -27 -38 -55 -75 -55 l-35 0 0 55 0 55 35 0 c22 0 43
-8 55 -20z m2 -157 c10 -9 18 -26 18 -39 0 -30 -46 -66 -79 -62 -24 3 -26 7
-29 61 l-3 57 37 0 c21 0 46 -7 56 -17z"/>
<path d="M722 953 c-45 -22 -79 -69 -93 -129 -36 -157 119 -282 267 -215 135
61 143 275 13 341 -48 25 -140 26 -187 3z m166 -53 c55 -34 78 -120 48 -178
-38 -72 -112 -99 -181 -66 -36 17 -75 65 -75 92 0 18 75 16 90 -3 18 -21 64
-19 85 5 40 45 -18 110 -69 76 -26 -17 -106 -23 -106 -7 0 17 47 76 70 88 37
19 101 16 138 -7z"/>
<path d="M1093 950 c-37 -22 -54 -69 -41 -115 8 -32 41 -65 64 -65 23 0 16
-22 -31 -92 -25 -37 -45 -70 -45 -73 0 -3 13 -5 29 -5 25 0 36 10 83 83 l53
82 3 -82 c3 -83 3 -83 30 -83 l27 0 0 77 0 78 30 5 c36 6 44 45 10 45 -38 0
-45 13 -45 91 l0 74 -67 0 c-50 0 -77 -5 -100 -20z m117 -85 l0 -55 -39 0
c-45 0 -71 20 -71 55 0 30 35 55 77 55 l33 0 0 -55z"/>
<path d="M865 477 l-30 -29 -3 26 -3 26 -320 0 c-206 0 -319 -4 -319 -10 0 -6
108 -10 305 -10 l305 0 0 -47 0 -47 33 32 c41 40 47 40 47 2 0 -16 5 -30 10
-30 6 0 10 27 10 60 0 33 -1 59 -2 59 -2 -1 -16 -15 -33 -32z"/>
<path d="M1053 503 c-22 -4 -23 -9 -23 -84 0 -46 4 -79 10 -79 6 0 10 14 10
30 0 27 3 30 24 24 17 -4 31 1 45 15 26 26 27 55 1 81 -20 20 -25 21 -67 13z
m55 -49 c4 -29 -23 -51 -43 -34 -16 13 -20 42 -8 54 14 14 48 1 51 -20z"/>
<path d="M1181 491 c-43 -43 -14 -101 49 -98 l40 1 0 53 c0 36 -4 53 -12 53
-7 0 -23 3 -35 6 -14 4 -28 -1 -42 -15z m67 -37 c4 -29 -23 -51 -43 -34 -16
13 -20 42 -8 54 14 14 48 1 51 -20z"/>
<path d="M940 445 c0 -30 5 -55 10 -55 6 0 10 20 10 45 0 38 3 45 19 45 11 0
23 5 26 10 4 6 -8 10 -29 10 l-36 0 0 -55z"/>
</g>
</svg>
